<svg width="250" height="250" viewBox="0 0 250 250" fill="none" xmlns="http://www.w3.org/2000/svg">
<rect width="250" height="250" rx="125" fill="#EFF1F8"/>
<path d="M42.08 178L64.976 79.36H90.464L93.344 156.256L131.792 79.36H157.712L134.96 178H118.832L138.56 93.328H137.408L97.232 173.968H81.68L78.656 93.328H77.648L58.208 178H42.08Z" fill="#7C88CC"/>
<path d="M188.096 79.36C204.704 79.36 213.008 86.176 213.008 99.808C213.008 111.808 207.248 120.928 195.728 127.168C199.664 129.088 202.4 131.392 203.936 134.08C205.472 136.672 206.24 140.032 206.24 144.16C206.24 154.144 202.928 162.304 196.304 168.64C189.776 174.88 180.32 178 167.936 178H132.08L154.832 79.36H188.096ZM177.296 134.8H158.144L151.376 164.176H171.104C176.864 164.176 181.376 162.4 184.64 158.848C188 155.296 189.68 150.544 189.68 144.592C189.68 138.064 185.552 134.8 177.296 134.8ZM185.504 93.184H167.792L161.168 121.264H179.168C184.16 121.264 188.288 119.536 191.552 116.08C194.912 112.624 196.592 108.208 196.592 102.832C196.592 99.472 195.68 97.024 193.856 95.488C192.128 93.952 189.344 93.184 185.504 93.184Z" fill="#583C87"/>
</svg>
