<svg width="250" height="250" viewBox="0 0 250 250" fill="none" xmlns="http://www.w3.org/2000/svg">
<rect width="250" height="250" rx="125" fill="#583C87"/>
<path d="M48.08 178L70.976 79.36H96.464L99.344 156.256L137.792 79.36H163.712L140.96 178H124.832L144.56 93.328H143.408L103.232 173.968H87.68L84.656 93.328H83.648L64.208 178H48.08Z" fill="#EFF1F8"/>
<path d="M194.096 79.36C210.704 79.36 219.008 86.176 219.008 99.808C219.008 111.808 213.248 120.928 201.728 127.168C205.664 129.088 208.4 131.392 209.936 134.08C211.472 136.672 212.24 140.032 212.24 144.16C212.24 154.144 208.928 162.304 202.304 168.64C195.776 174.88 186.32 178 173.936 178H138.08L160.832 79.36H194.096ZM183.296 134.8H164.144L157.376 164.176H177.104C182.864 164.176 187.376 162.4 190.64 158.848C194 155.296 195.68 150.544 195.68 144.592C195.68 138.064 191.552 134.8 183.296 134.8ZM191.504 93.184H173.792L167.168 121.264H185.168C190.16 121.264 194.288 119.536 197.552 116.08C200.912 112.624 202.592 108.208 202.592 102.832C202.592 99.472 201.68 97.024 199.856 95.488C198.128 93.952 195.344 93.184 191.504 93.184Z" fill="#7C88CC"/>
</svg>
